<?xml version="1.0" encoding="UTF-8" standalone="no"?>
<!-- Created with Inkscape (http://www.inkscape.org/) -->

<svg
   width="210mm"
   height="297mm"
   viewBox="0 0 210 297"
   version="1.1"
   id="svg1"
   inkscape:version="1.4.2 (ebf0e940, 2025-05-08)"
   sodipodi:docname="rw_logo.svg"
   xmlns:inkscape="http://www.inkscape.org/namespaces/inkscape"
   xmlns:sodipodi="http://sodipodi.sourceforge.net/DTD/sodipodi-0.dtd"
   xmlns="http://www.w3.org/2000/svg"
   xmlns:svg="http://www.w3.org/2000/svg">
  <sodipodi:namedview
     id="namedview1"
     pagecolor="#ffffff"
     bordercolor="#000000"
     borderopacity="0.25"
     inkscape:showpageshadow="2"
     inkscape:pageopacity="0.0"
     inkscape:pagecheckerboard="0"
     inkscape:deskcolor="#d1d1d1"
     inkscape:document-units="mm"
     inkscape:zoom="0.70733726"
     inkscape:cx="354.14507"
     inkscape:cy="603.67243"
     inkscape:window-width="1152"
     inkscape:window-height="943"
     inkscape:window-x="0"
     inkscape:window-y="25"
     inkscape:window-maximized="0"
     inkscape:current-layer="layer1" />
  <defs
     id="defs1" />
  <g
     inkscape:label="Layer 1"
     inkscape:groupmode="layer"
     id="layer1">
    <path
       id="path2"
       style="stroke-width:0.0352778"
       d="m 134.27148,110.03906 c -2.57822,0.31087 -5.42751,-0.43097 -7.75424,1.05553 -1.5647,0.93913 -1.93113,2.88717 -2.08555,4.56123 -3.23295,13.66258 -6.95601,27.2065 -10.03716,40.90473 -2.0086,-5.67069 -4.14347,-11.29519 -6.20312,-16.94922 -3.48633,0 -6.97266,0 -10.458988,0 -1.732165,5.37627 -3.567548,10.72002 -5.279297,16.10156 -0.832621,-3.9632 -1.757193,-7.89981 -2.609375,-11.85351 3.261729,-2.73407 5.023125,-6.95741 5.196575,-11.16144 0.539695,-4.96762 -0.120945,-10.35326 -3.17331,-14.46001 -2.803754,-3.57911 -7.409276,-5.18678 -11.81436,-5.51351 -5.541748,-0.45397 -11.108331,-0.19176 -16.661639,-0.27715 -0.513761,0.0711 -1.306682,-0.13689 -1.654688,0.1 0,20.78112 0,41.56224 0,62.34335 4.233724,0 8.467448,10e-6 12.701172,0 0,-9.09765 0,-18.19531 0,-27.29296 0.789062,0.0182 1.578125,0.0365 2.367188,0.0547 2.505406,9.00776 5.009226,18.01596 7.515624,27.02344 3.8763,0.0965 7.752606,0.19267 11.628907,0.28906 2.160759,-6.51494 4.498581,-13.11979 6.585941,-19.5664 2.12432,5.44097 4.05473,10.96074 6.13021,16.42313 0.37478,1.00341 0.74757,2.00756 1.12369,3.01046 4.24101,0.0325 8.49051,0.33451 12.72461,-0.043 5.15492,-21.07235 10.26616,-42.15534 15.3125,-63.2539 -0.85574,-1.05253 -2.1982,-1.64165 -3.55469,-1.4961 z m -58.42773,12.47266 c 1.890196,0.0687 4.176521,0.15691 5.584309,1.6744 1.463314,1.81353 1.199409,4.29517 1.239543,6.47754 0.0695,1.75834 -0.0321,3.74052 -1.400656,5.03114 -1.17345,1.26891 -2.932105,1.76514 -4.617156,1.73258 -0.735997,0.0561 -1.474844,0.0417 -2.21229,0.059 0,-5.00065 0,-10.0013 0,-15.00195 0.46875,0.009 0.9375,0.0182 1.40625,0.0273 z" />
  </g>
</svg>
