<?xml version="1.0" encoding="UTF-8" standalone="no"?>
<!-- Created with Inkscape (http://www.inkscape.org/) -->

<svg
   width="210mm"
   height="297mm"
   viewBox="0 0 210 297"
   version="1.1"
   id="svg1"
   inkscape:version="1.4.2 (ebf0e940, 2025-05-08)"
   sodipodi:docname="rw_logo_bottom.svg"
   xmlns:inkscape="http://www.inkscape.org/namespaces/inkscape"
   xmlns:sodipodi="http://sodipodi.sourceforge.net/DTD/sodipodi-0.dtd"
   xmlns="http://www.w3.org/2000/svg"
   xmlns:svg="http://www.w3.org/2000/svg">
  <sodipodi:namedview
     id="namedview1"
     pagecolor="#ffffff"
     bordercolor="#000000"
     borderopacity="0.25"
     inkscape:showpageshadow="2"
     inkscape:pageopacity="0.0"
     inkscape:pagecheckerboard="0"
     inkscape:deskcolor="#d1d1d1"
     inkscape:document-units="mm"
     inkscape:zoom="0.70733726"
     inkscape:cx="461.59027"
     inkscape:cy="767.66775"
     inkscape:window-width="1152"
     inkscape:window-height="943"
     inkscape:window-x="0"
     inkscape:window-y="25"
     inkscape:window-maximized="0"
     inkscape:current-layer="layer1" />
  <defs
     id="defs1" />
  <g
     inkscape:label="Layer 1"
     inkscape:groupmode="layer"
     id="layer1">
    <path
       id="path2"
       style="stroke-width:0.0352778"
       d="m 134.51367,108.43164 c -2.88176,0.3043 -6.04115,-0.37534 -8.6529,1.21197 -2.13431,1.14456 -2.84087,3.69709 -3.04046,5.94233 -2.83186,11.82469 -5.96942,23.57515 -8.75586,35.41015 -1.58156,-4.32687 -3.17304,-8.64978 -4.76562,-12.97265 -4.23959,0 -8.47917,0 -12.718752,0 -1.271331,3.88274 -2.542631,7.7652 -3.824219,11.64453 -0.38802,-1.75586 -0.776041,-3.51172 -1.164062,-5.26758 3.464707,-3.26986 5.043134,-8.10442 5.128605,-12.78385 0.375864,-5.19187 -0.645659,-10.75757 -4.027884,-14.86081 -3.331475,-3.81563 -8.496094,-5.47052 -13.433474,-5.67449 -5.88446,-0.35578 -11.786087,-0.18447 -17.67506,-0.18476 -1.113486,0.16645 -1.706895,1.43359 -1.435546,2.45743 0,21.04153 -10e-7,42.08307 0,63.12461 5.292317,0 10.584635,0 15.876953,0 0,-8.56836 0,-17.13672 0,-25.70508 2.360871,8.48692 4.720189,16.97428 7.082031,25.46094 4.657549,0.11599 9.315107,0.23165 13.972656,0.34765 1.828322,-5.48681 3.723582,-10.95103 5.552732,-16.4375 2.03264,5.41314 4.0086,10.84745 6.04883,16.25781 5.03278,0.0383 10.08103,0.38116 15.10156,-0.12304 5.30469,-21.69993 10.55692,-43.41261 15.76953,-65.13477 -1.11019,-1.64515 -3.02096,-2.79837 -5.03906,-2.71289 z m -57.437498,15.73633 c 1.400977,0.0606 3.19194,0.44286 3.624987,1.99667 0.645495,1.92879 0.262954,3.99524 0.387356,5.98632 -0.02445,1.63115 -1.170274,3.19891 -2.813178,3.49727 -0.735642,0.18058 -1.497838,0.18053 -2.249946,0.22286 0,-3.91927 0,-7.83854 0,-11.75781 0.35026,0.0182 0.70052,0.0365 1.050781,0.0547 z" />
  </g>
</svg>
