<?xml version="1.0" encoding="UTF-8" standalone="no"?>
<!-- Created with Inkscape (http://www.inkscape.org/) -->

<svg
   width="210mm"
   height="297mm"
   viewBox="0 0 210 297"
   version="1.1"
   id="svg1"
   inkscape:version="1.4.2 (ebf0e940, 2025-05-08)"
   sodipodi:docname="watkins.svg"
   xmlns:inkscape="http://www.inkscape.org/namespaces/inkscape"
   xmlns:sodipodi="http://sodipodi.sourceforge.net/DTD/sodipodi-0.dtd"
   xmlns="http://www.w3.org/2000/svg"
   xmlns:svg="http://www.w3.org/2000/svg">
  <sodipodi:namedview
     id="namedview1"
     pagecolor="#ffffff"
     bordercolor="#000000"
     borderopacity="0.25"
     inkscape:showpageshadow="2"
     inkscape:pageopacity="0.0"
     inkscape:pagecheckerboard="0"
     inkscape:deskcolor="#d1d1d1"
     inkscape:document-units="mm"
     inkscape:zoom="0.26990617"
     inkscape:cx="-1591.2937"
     inkscape:cy="-192.65954"
     inkscape:window-width="1816"
     inkscape:window-height="943"
     inkscape:window-x="0"
     inkscape:window-y="25"
     inkscape:window-maximized="0"
     inkscape:current-layer="layer1" />
  <defs
     id="defs1">
    <inkscape:path-effect
       effect="fillet_chamfer"
       id="path-effect2"
       is_visible="true"
       lpeversion="1"
       nodesatellites_param="F,0,0,1,0,0,0,1 @ F,0,0,1,0,0,0,1 @ F,0,0,1,0,0,0,1 @ F,0,0,1,0,0,0,1 @ F,0,0,1,0,0,0,1 @ F,0,0,1,0,0,0,1 @ F,0,0,1,0,0,0,1 @ F,0,0,1,0,0,0,1 @ F,0,0,1,0,0,0,1 @ F,0,0,1,0,0,0,1"
       radius="0"
       unit="px"
       method="auto"
       mode="F"
       chamfer_steps="1"
       flexible="false"
       use_knot_distance="true"
       apply_no_radius="true"
       apply_with_radius="true"
       only_selected="false"
       hide_knots="false" />
    <inkscape:path-effect
       effect="fillet_chamfer"
       id="path-effect1"
       is_visible="true"
       lpeversion="1"
       nodesatellites_param="F,0,0,1,0,0,0,1 @ F,0,0,1,0,0,0,1 @ F,0,0,1,0,0,0,1 @ F,0,0,1,0,0,0,1 @ F,0,0,1,0,0,0,1 @ F,0,0,1,0,0,0,1 | F,0,0,1,0,0,0,1 @ F,0,0,1,0,0,0,1 @ F,0,0,1,0,0,0,1 @ F,0,0,1,0,0,0,1 @ F,0,0,1,0,0,0,1 @ F,0,0,1,0,0,0,1 @ F,0,0,1,0,0,0,1 @ F,0,0,1,0,0,0,1 @ F,0,0,1,0,0,0,1 @ F,0,0,1,0,0,0,1 @ F,0,0,1,0,0,0,1 @ F,0,0,1,0,0,0,1 @ F,0,0,1,0,0,0,1 @ F,0,0,1,0,0,0,1 @ F,0,0,1,0,0,0,1 @ F,0,0,1,0,0,0,1 @ F,0,0,1,0,0,0,1 @ F,0,0,1,0,0,0,1 @ F,0,0,1,0,0,0,1 @ F,0,0,1,0,0,0,1 @ F,0,0,1,0,0,0,1 @ F,0,0,1,0,0,0,1 @ F,0,0,1,0,0,0,1 @ F,0,0,1,0,0,0,1 @ F,0,0,1,0,0,0,1 @ F,0,0,1,0,0,0,1 @ F,0,0,1,0,0,0,1 @ F,0,0,1,0,0,0,1 @ F,0,0,1,0,0,0,1 @ F,0,0,1,0,0,0,1 @ F,0,0,1,0,0,0,1 @ F,0,0,1,0,0,0,1 @ F,0,0,1,0,0,0,1 @ F,0,0,1,0,0,0,1 @ F,0,0,1,0,0,0,1 @ F,0,0,1,0,0,0,1 @ F,0,0,1,0,0,0,1 @ F,0,0,1,0,0,0,1 @ F,0,0,1,0,0,0,1 @ F,0,0,1,0,0,0,1 @ F,0,0,1,0,0,0,1 @ F,0,0,1,0,0,0,1 @ F,0,0,1,0,0,0,1 @ F,0,0,1,0,0,0,1 @ F,0,0,1,0,0,0,1 @ F,0,0,1,0,0,0,1 @ F,0,0,1,0,0,0,1 @ F,0,0,1,0,0,0,1 @ F,0,0,1,0,0,0,1 @ F,0,0,1,0,0,0,1 @ F,0,0,1,0,0,0,1 @ F,0,0,1,0,0,0,1 @ F,0,0,1,0,0,0,1 @ F,0,0,1,0,0,0,1 @ F,0,0,1,0,0,0,1 @ F,0,0,1,0,0,0,1 @ F,0,0,1,0,0,0,1 @ F,0,0,1,0,0,0,1 @ F,0,0,1,0,0,0,1 @ F,0,0,1,0,0,0,1 @ F,0,0,1,0,0,0,1 @ F,0,0,1,0,0,0,1 @ F,0,0,1,0,0,0,1 @ F,0,0,1,0,0,0,1 @ F,0,0,1,0,0,0,1 @ F,0,0,1,0,0,0,1 @ F,0,0,1,0,0,0,1 @ F,0,0,1,0,0,0,1 @ F,0,0,1,0,0,0,1 @ F,0,0,1,0,0,0,1 @ F,0,0,1,0,0,0,1 @ F,0,0,1,0,0,0,1 @ F,0,0,1,0,0,0,1 @ F,0,0,1,0,0,0,1 @ F,0,0,1,0,0,0,1 @ F,0,0,1,0,0,0,1 @ F,0,0,1,0,0,0,1 @ F,0,0,1,0,0,0,1 @ F,0,0,1,0,0,0,1 @ F,0,0,1,0,0,0,1 @ F,0,0,1,0,0,0,1 @ F,0,0,1,0,0,0,1 @ F,0,0,1,0,0,0,1 @ F,0,0,1,0,0,0,1 @ F,0,0,1,0,0,0,1 @ F,0,0,1,0,0,0,1 @ F,0,0,1,0,0,0,1 @ F,0,0,1,0,0,0,1 @ F,0,0,1,0,0,0,1 @ F,0,0,1,0,0,0,1 @ F,0,0,1,0,0,0,1 @ F,0,0,1,0,0,0,1 @ F,0,0,1,0,0,0,1 @ F,0,0,1,0,0,0,1 @ F,0,0,1,0,0,0,1 @ F,0,0,1,0,0,0,1 @ F,0,0,1,0,0,0,1 @ F,0,0,1,0,0,0,1 @ F,0,0,1,0,0,0,1 @ F,0,0,1,0,0,0,1 @ F,0,0,1,0,0,0,1 @ F,0,0,1,0,0,0,1 @ F,0,0,1,0,0,0,1 @ F,0,0,1,0,0,0,1 @ F,0,0,1,0,0,0,1 @ F,0,0,1,0,0,0,1 @ F,0,0,1,0,0,0,1 @ F,0,0,1,0,0,0,1 @ F,0,0,1,0,0,0,1 @ F,0,0,1,0,0,0,1 @ F,0,0,1,0,0,0,1 @ F,0,0,1,0,0,0,1 @ F,0,0,1,0,0,0,1 @ F,0,0,1,0,0,0,1 @ F,0,0,1,0,0,0,1 @ F,0,0,1,0,0,0,1 @ F,0,0,1,0,0,0,1 @ F,0,0,1,0,0,0,1 @ F,0,0,1,0,0,0,1 @ F,0,0,1,0,0,0,1 @ F,0,0,1,0,0,0,1 @ F,0,0,1,0,0,0,1 @ F,0,0,1,0,0,0,1 @ F,0,0,1,0,0,0,1 | F,0,0,1,0,0,0,1 @ F,0,0,1,0,0,0,1 @ F,0,0,1,0,0,0,1 @ F,0,0,1,0,0,0,1 @ F,0,0,1,0,0,0,1 @ F,0,0,1,0,0,0,1 @ F,0,0,1,0,0,0,1 @ F,0,0,1,0,0,0,1 @ F,0,0,1,0,0,0,1 @ F,0,0,1,0,0,0,1 @ F,0,0,1,0,0,0,1 @ F,0,0,1,0,0,0,1 @ F,0,0,1,0,0,0,1 @ F,0,0,1,0,0,0,1 @ F,0,0,1,0,0,0,1 @ F,0,0,1,0,0,0,1 @ F,0,0,1,0,0,0,1 @ F,0,0,1,0,0,0,1 @ F,0,0,1,0,0,0,1 @ F,0,0,1,0,0,0,1 @ F,0,0,1,0,0,0,1 @ F,0,0,1,0,0,0,1 @ F,0,0,1,0,0,0,1 @ F,0,0,1,0,0,0,1 @ F,0,0,1,0,0,0,1 @ F,0,0,1,0,0,0,1 @ F,0,0,1,0,0,0,1 @ F,0,0,1,0,0,0,1 @ F,0,0,1,0,0,0,1 @ F,0,0,1,0,0,0,1 @ F,0,0,1,0,0,0,1 @ F,0,0,1,0,0,0,1 @ F,0,0,1,0,0,0,1 @ F,0,0,1,0,0,0,1 @ F,0,0,1,0,0,0,1 @ F,0,0,1,0,0,0,1 @ F,0,0,1,0,0,0,1 @ F,0,0,1,0,0,0,1 @ F,0,0,1,0,0,0,1 @ F,0,0,1,0,0,0,1 @ F,0,0,1,0,0,0,1 @ F,0,0,1,0,0,0,1 @ F,0,0,1,0,0,0,1 @ F,0,0,1,0,0,0,1 @ F,0,0,1,0,0,0,1 @ F,0,0,1,0,0,0,1 @ F,0,0,1,0,0,0,1 @ F,0,0,1,0,0,0,1 @ F,0,0,1,0,0,0,1 @ F,0,0,1,0,0,0,1 @ F,0,0,1,0,0,0,1 @ F,0,0,1,0,0,0,1 @ F,0,0,1,0,0,0,1 @ F,0,0,1,0,0,0,1 @ F,0,0,1,0,0,0,1 @ F,0,0,1,0,0,0,1 @ F,0,0,1,0,0,0,1 @ F,0,0,1,0,0,0,1 @ F,0,0,1,0,0,0,1 @ F,0,0,1,0,0,0,1 @ F,0,0,1,0,0,0,1 @ F,0,0,1,0,0,0,1 @ F,0,0,1,0,0,0,1 @ F,0,0,1,0,0,0,1 @ F,0,0,1,0,0,0,1 @ F,0,0,1,0,0,0,1 @ F,0,0,1,0,0,0,1 @ F,0,0,1,0,0,0,1 @ F,0,0,1,0,0,0,1 @ F,0,0,1,0,0,0,1 @ F,0,0,1,0,0,0,1 @ F,0,0,1,0,0,0,1 @ F,0,0,1,0,0,0,1 @ F,0,0,1,0,0,0,1 @ F,0,0,1,0,0,0,1 @ F,0,0,1,0,0,0,1 @ F,0,0,1,0,0,0,1 @ F,0,0,1,0,0,0,1 @ F,0,0,1,0,0,0,1 @ F,0,0,1,0,0,0,1 @ F,0,0,1,0,0,0,1 @ F,0,0,1,0,0,0,1 @ F,0,0,1,0,0,0,1 @ F,0,0,1,0,0,0,1 @ F,0,0,1,0,0,0,1 | F,0,0,1,0,0,0,1 @ F,0,0,1,0,0,0,1 @ F,0,0,1,0,0,0,1 @ F,0,0,1,0,0,0,1 @ F,0,0,1,0,0,0,1 @ F,0,0,1,0,0,0,1 @ F,0,0,1,0,0,0,1 @ F,0,0,1,0,0,0,1 @ F,0,0,1,0,0,0,1 @ F,0,0,1,0,0,0,1 @ F,0,0,1,0,0,0,1 @ F,0,0,1,0,0,0,1 @ F,0,0,1,0,0,0,1 @ F,0,0,1,0,0,0,1 @ F,0,0,1,0,0,0,1 @ F,0,0,1,0,0,0,1 @ F,0,0,1,0,0,0,1 @ F,0,0,1,0,0,0,1 @ F,0,0,1,0,0,0,1 @ F,0,0,1,0,0,0,1 @ F,0,0,1,0,0,0,1 @ F,0,0,1,0,0,0,1 @ F,0,0,1,0,0,0,1 @ F,0,0,1,0,0,0,1 @ F,0,0,1,0,0,0,1 @ F,0,0,1,0,0,0,1 | F,0,0,1,0,0,0,1 @ F,0,0,1,0,0,0,1 @ F,0,0,1,0,0,0,1 @ F,0,0,1,0,0,0,1 @ F,0,0,1,0,0,0,1 @ F,0,0,1,0,0,0,1 @ F,0,0,1,0,0,0,1 @ F,0,0,1,0,0,0,1 @ F,0,0,1,0,0,0,1 @ F,0,0,1,0,0,0,1 @ F,0,0,1,0,0,0,1 @ F,0,0,1,0,0,0,1 @ F,0,0,1,0,0,0,1 @ F,0,0,1,0,0,0,1 @ F,0,0,1,0,0,0,1 @ F,0,0,1,0,0,0,1 @ F,0,0,1,0,0,0,1 @ F,0,0,1,0,0,0,1 @ F,0,0,1,0,0,0,1 @ F,0,0,1,0,0,0,1 @ F,0,0,1,0,0,0,1 @ F,0,0,1,0,0,0,1 @ F,0,0,1,0,0,0,1 @ F,0,0,1,0,0,0,1 @ F,0,0,1,0,0,0,1 @ F,0,0,1,0,0,0,1 @ F,0,0,1,0,0,0,1 @ F,0,0,1,0,0,0,1 @ F,0,0,1,0,0,0,1 @ F,0,0,1,0,0,0,1 | F,0,0,1,0,0,0,1 @ F,0,0,1,0,0,0,1 @ F,0,0,1,0,0,0,1 @ F,0,0,1,0,0,0,1 @ F,0,0,1,0,0,0,1 @ F,0,0,1,0,0,0,1 @ F,0,0,1,0,0,0,1 @ F,0,0,1,0,0,0,1 @ F,0,0,1,0,0,0,1 @ F,0,0,1,0,0,0,1 @ F,0,0,1,0,0,0,1 @ F,0,0,1,0,0,0,1 @ F,0,0,1,0,0,0,1 @ F,0,0,1,0,0,0,1 @ F,0,0,1,0,0,0,1 @ F,0,0,1,0,0,0,1 @ F,0,0,1,0,0,0,1 @ F,0,0,1,0,0,0,1 @ F,0,0,1,0,0,0,1 @ F,0,0,1,0,0,0,1 @ F,0,0,1,0,0,0,1 @ F,0,0,1,0,0,0,1 @ F,0,0,1,0,0,0,1 @ F,0,0,1,0,0,0,1 @ F,0,0,1,0,0,0,1 @ F,0,0,1,0,0,0,1 @ F,0,0,1,0,0,0,1 @ F,0,0,1,0,0,0,1 @ F,0,0,1,0,0,0,1 @ F,0,0,1,0,0,0,1 | F,0,0,1,0,0,0,1 @ F,0,0,1,0,0,0,1 @ F,0,0,1,0,0,0,1 @ F,0,0,1,0,0,0,1 @ F,0,0,1,0,0,0,1 @ F,0,0,1,0,0,0,1 @ F,0,0,1,0,0,0,1 @ F,0,0,1,0,0,0,1 @ F,0,0,1,0,0,0,1 @ F,0,0,1,0,0,0,1 @ F,0,0,1,0,0,0,1 @ F,0,0,1,0,0,0,1 @ F,0,0,1,0,0,0,1 @ F,0,0,1,0,0,0,1 @ F,0,0,1,0,0,0,1 @ F,0,0,1,0,0,0,1 @ F,0,0,1,0,0,0,1 @ F,0,0,1,0,0,0,1 @ F,0,0,1,0,0,0,1 @ F,0,0,1,0,0,0,1 @ F,0,0,1,0,0,0,1 @ F,0,0,1,0,0,0,1 @ F,0,0,1,0,0,0,1 @ F,0,0,1,0,0,0,1 @ F,0,0,1,0,0,0,1 @ F,0,0,1,0,0,0,1 @ F,0,0,1,0,0,0,1 @ F,0,0,1,0,0,0,1 @ F,0,0,1,0,0,0,1 @ F,0,0,1,0,0,0,1 @ F,0,0,1,0,0,0,1 @ F,0,0,1,0,0,0,1 @ F,0,0,1,0,0,0,1 @ F,0,0,1,0,0,0,1 @ F,0,0,1,0,0,0,1 @ F,0,0,1,0,0,0,1 @ F,0,0,1,0,0,0,1 @ F,0,0,1,0,0,0,1 @ F,0,0,1,0,0,0,1 @ F,0,0,1,0,0,0,1 @ F,0,0,1,0,0,0,1 @ F,0,0,1,0,0,0,1 @ F,0,0,1,0,0,0,1 @ F,0,0,1,0,0,0,1 @ F,0,0,1,0,0,0,1 @ F,0,0,1,0,0,0,1 @ F,0,0,1,0,0,0,1 @ F,0,0,1,0,0,0,1 @ F,0,0,1,0,0,0,1 @ F,0,0,1,0,0,0,1 @ F,0,0,1,0,0,0,1 @ F,0,0,1,0,0,0,1 @ F,0,0,1,0,0,0,1 @ F,0,0,1,0,0,0,1 | F,0,0,1,0,0,0,1 @ F,0,0,1,0,0,0,1 @ F,0,0,1,0,0,0,1 @ F,0,0,1,0,0,0,1 @ F,0,0,1,0,0,0,1 @ F,0,0,1,0,0,0,1 @ F,0,0,1,0,0,0,1 @ F,0,0,1,0,0,0,1 @ F,0,0,1,0,0,0,1 @ F,0,0,1,0,0,0,1 @ F,0,0,1,0,0,0,1 @ F,0,0,1,0,0,0,1 @ F,0,0,1,0,0,0,1 @ F,0,0,1,0,0,0,1 @ F,0,0,1,0,0,0,1 @ F,0,0,1,0,0,0,1 @ F,0,0,1,0,0,0,1 @ F,0,0,1,0,0,0,1 @ F,0,0,1,0,0,0,1 @ F,0,0,1,0,0,0,1 @ F,0,0,1,0,0,0,1 @ F,0,0,1,0,0,0,1 @ F,0,0,1,0,0,0,1 @ F,0,0,1,0,0,0,1"
       radius="0"
       unit="px"
       method="auto"
       mode="F"
       chamfer_steps="1"
       flexible="false"
       use_knot_distance="true"
       apply_no_radius="true"
       apply_with_radius="true"
       only_selected="false"
       hide_knots="false" />
  </defs>
  <g
     inkscape:label="Layer 1"
     inkscape:groupmode="layer"
     id="layer1">
    <path
       style="stroke-width:0.264583"
       d="m 62.638601,-247.42965 c -0.009,-4.23313 -0.0584,-8.46679 -0.003,-12.69904 0.0159,-1.18881 -0.27035,-1.63127 -1.53844,-1.58817 -2.81882,0.0958 -5.64568,0.10613 -8.46387,0.003 -1.34726,-0.0492 -1.63679,0.4508 -1.60139,1.67656 0.14674,5.08265 0.2245,10.1674 0.30819,15.25171 0.0296,1.79888 -0.0116,3.59882 0.006,5.39801 0.083,8.30815 0.17698,16.6162 0.26406,24.92431 0.0884,8.44005 0.18013,16.88008 0.25791,25.32023 0.0891,9.67179 0.17063,19.34367 0.2398,29.01561 0.0114,1.58636 -0.10652,3.17406 -0.0817,4.75984 0.10787,6.89241 0.28064,13.78391 0.36563,20.67653 0.12083,9.80205 0.1906,19.60472 0.27223,29.40722 0.0923,11.084946 0.17317,22.169976 0.26244,33.254966 0.003,0.33184 0.0438,0.66338 0.0647,0.9622 h 11.40251 c -0.16177,-8.20059 -0.35885,-16.32152 -0.47239,-24.4436 -0.12901,-9.233936 -0.18176,-18.468916 -0.27051,-27.703416 -0.087,-9.05553 -0.18364,-18.11096 -0.265,-27.16655 -0.094,-10.46396 -0.20521,-20.92789 -0.25443,-31.39209 -0.0425,-9.06146 -0.009,-18.12328 -0.009,-27.02763 0.0116,-0.0236 -0.0552,0.11077 -0.12205,0.24509 -0.12105,-0.002 -0.24209,-0.003 -0.36314,-0.005 0,-12.8686 0,-25.7372 1.1e-4,-38.87041 z"
       id="path8" />
    <path
       style="stroke-width:0.264583"
       d="m 197.1252,-187.0436 c -1.58594,-1.78487 -3.1111,-3.62866 -4.77105,-5.34183 -3.05014,-3.14793 -6.17275,-6.2006 -8.60496,-9.91011 -2.08251,-3.17621 -3.77029,-6.50358 -4.67273,-10.16809 -0.49686,-2.01744 -0.49493,-4.15225 -0.84833,-6.21175 -0.52202,-3.04234 -0.31441,-6.07374 0.2513,-9.04667 0.35833,-1.88279 1.24539,-3.66547 1.90056,-5.49117 1.82305,-5.08054 5.08084,-8.94866 9.78095,-11.61143 4.99526,-2.83001 10.16159,-5.26785 15.67752,-6.91343 5.14355,-1.53448 10.28935,-3.06135 15.53636,-4.62197 -1.08598,-0.42222 -2.00676,-0.86396 -2.97458,-1.14233 -4.69948,-1.35169 -8.47852,-3.6444 -9.42935,-8.97833 -1.16716,0.51687 -2.33321,1.02066 -3.48891,1.54719 -5.06256,2.30652 -10.11898,4.62653 -15.18401,6.92771 -2.8712,1.30448 -5.78443,2.52023 -8.62433,3.88887 -2.92656,1.41039 -5.7984,2.94973 -7.98248,5.45503 -1.52143,1.74518 -3.09369,3.45952 -4.45982,5.32219 -1.02407,1.39625 -2.08849,2.91296 -2.54788,4.54164 -0.91848,3.25614 -1.44992,6.62276 -2.11196,9.94958 -0.68231,3.42872 -0.76435,6.872 -0.28411,10.34318 0.56542,4.08691 1.42539,8.1031 2.93391,11.94342 1.22262,3.11253 2.64269,6.14694 3.93957,9.23097 1.61793,3.84736 4.31009,6.91088 7.20016,9.80453 3.90961,3.91444 7.914,7.73412 11.86101,11.61142 2.10965,2.07237 4.25574,4.11486 6.25324,6.29207 1.76741,1.92641 3.37486,4.00234 5.00877,6.04752 1.06027,1.32714 2.17636,2.63871 3.028,4.09708 1.47775,2.53049 2.75368,5.17808 4.1439,7.76061 1.9785,3.67539 2.59493,7.69495 2.6888,11.75989 0.10417,4.51152 0.0568,9.04651 -0.29863,13.54172 -0.24202,3.06141 -0.93618,6.12559 -1.77099,9.09206 -1.0863,3.86004 -2.55323,7.58615 -4.44193,11.17085 -2.25922,4.28792 -5.09535,8.151426 -8.39727,11.599766 -2.19043,2.2876 -4.9445,4.07995 -7.60113,5.86322 -2.32706,1.56197 -4.7715,3.03179 -7.33936,4.13402 -4.59777,1.97355 -9.3296,3.63424 -13.99984,5.43999 -0.97102,0.37543 -1.41378,0.75146 -1.20169,2.14903 0.3796,2.5008 0.43268,5.19132 -2.16858,6.91298 -0.45659,0.30218 -0.77795,0.80861 -1.30378,1.37321 0.47416,0.0376 0.65849,0.0989 0.81618,0.0578 3.38117,-0.88058 6.76723,-1.74385 10.13587,-2.67051 3.42646,-0.94257 6.91664,-1.7335 10.23155,-2.98203 4.40989,-1.661 8.75104,-3.54912 12.9885,-5.61313 6.22051,-3.02992 11.55179,-7.26561 15.90569,-12.68185 2.13572,-2.65685 4.34896,-5.29662 5.70743,-8.438156 1.33991,-3.0986 2.38654,-6.32727 3.49465,-9.52217 1.51357,-4.36373 2.32621,-8.8933 2.67525,-13.47543 0.28258,-3.70893 0.30864,-7.44575 0.26953,-11.16831 -0.0337,-3.21295 -0.1329,-6.44782 -0.55128,-9.62719 -0.35208,-2.67543 -0.99838,-5.3574 -1.89135,-7.90431 -0.99679,-2.84303 -2.20123,-5.66432 -3.71946,-8.25855 -1.411,-2.41108 -3.32602,-4.53286 -5.06891,-6.74274 -2.94431,-3.73311 -5.83666,-7.51322 -8.92419,-11.12542 -2.4039,-2.81243 -5.07127,-5.39965 -7.76581,-8.21068"
       id="path7" />
    <path
       style="stroke-width:0.264583"
       d="m 86.527431,-223.88149 c 0,48.81223 0,97.62446 -0.007,146.436696 -6e-5,0.42864 -0.0607,0.86178 -0.13618,1.28514 -0.35968,2.01781 -1.49186,3.56077 -3.40588,5.0112 h 12.92638 V -246.12477 c 0.94721,0.93272 1.64618,1.60409 2.32667,2.2937 7.250129,7.34735 14.488979,14.7058 21.749269,22.0431 3.06242,3.09493 6.18337,6.1321 9.23481,9.23767 0.36629,0.37277 0.64897,1.00806 0.65643,1.52619 0.13557,9.40943 0.23199,18.81948 0.31832,28.22956 0.0985,10.73423 0.17645,21.46866 0.26797,32.20295 0.0844,9.89696 0.18571,19.79379 0.26011,29.69081 0.0903,12.01027 0.17087,24.020606 0.23289,36.031036 0.0214,4.14453 0.008,8.29 -0.0639,12.43376 -0.019,1.0978 0.31419,1.49608 1.41962,1.46137 2.02639,-0.0636 4.0586,-0.079 6.08362,0.003 1.16231,0.0472 1.5031,-0.33003 1.50262,-1.49776 -0.0254,-61.115306 -0.0169,-122.230626 -0.0418,-183.345946 0,-2.34915 1.29481,-3.80468 2.92314,-5.14227 0.42518,-0.34929 0.88709,-0.65388 1.60943,-1.18158 h -14.5661 v 32.74973 c -0.42389,-0.33395 -0.64037,-0.47534 -0.82241,-0.65221 -3.52218,-3.42226 -7.04921,-6.8397 -10.55727,-10.27642 -4.6886,-4.59322 -9.37181,-9.19208 -14.03768,-13.8084 -2.41125,-2.38564 -4.771679,-4.82257 -7.177169,-7.21413 -0.35308,-0.35103 -0.82375,-0.81555 -1.24907,-0.82514 -3.11565,-0.0703 -6.23363,-0.0379 -9.44705,-0.0379 v 38.32149"
       id="path6" />
    <path
       style="stroke-width:0.264583"
       d="m -103.27229,-251.17498 c 0,0 0.0579,-8.7e-4 0.24196,0.001 1.16538,-0.90645 2.50038,-1.13477 3.948998,-1.12635 5.613935,0.0326 11.228208,0.007 16.842287,0.0236 0.59607,0.002 1.191708,0.14268 1.806075,0.37629 0.01614,0.0503 0.03228,0.10052 -0.01693,0.23686 0,0 0.06461,0.0866 0.0123,0.33465 -0.0029,0.79347 -0.0082,1.58695 -0.0082,2.38043 -0.0013,58.9393 -0.0024,117.87861 -0.169903,176.934686 0.370827,0.2232 0.73731,0.63081 1.113177,0.63966 2.423689,0.0571 4.849444,0.0264 7.274522,0.0258 1.92603,-5.3e-4 1.92913,2.7e-4 1.929178,-1.96136 0.0013,-59.039736 0.0016,-118.079466 0.0062,-177.119196 4.8e-5,-0.59358 0.05383,-1.18716 0.0863,-1.85897 5.316633,0 10.471211,-0.009 15.625742,0.004 3.091817,0.008 6.249876,-0.40325 9.244446,1.39174 0.123571,0.17625 0.247158,0.3525 0.345085,0.71503 0.570572,1.11791 1.141146,2.23582 1.711717,3.35373 0.1211,-0.0373 0.242218,-0.0745 0.363318,-0.1118 -0.09344,-0.5535 -0.186891,-1.10699 -0.288049,-1.90946 0.01606,-4.16723 0.03214,-8.33446 0.185036,-12.63245 -0.380646,-0.18818 -0.761082,-0.54051 -1.141987,-0.54102 -20.051746,-0.027 -40.103525,-0.0193 -60.155292,-0.039 -1.0407,-10e-4 -1.39389,0.38947 -1.38581,1.4051 0.0328,4.14224 0.007,8.28492 0.0215,12.42738 0.001,0.38117 0.13484,0.76188 0.20698,1.1428 0.12662,0.009 0.25326,0.0174 0.37988,0.0261 0.41053,-1.12303 0.82103,-2.24606 1.22007,-3.39333 0,0 0.0244,0.0112 0.19414,0.0216 0.13286,-0.22996 0.26571,-0.45992 0.40737,-0.74712"
       id="path5" />
    <path
       id="path4"
       style="stroke-width:0.264583"
       d="M -179.45675 -262.04757 C -179.8096 -262.05256 -180.16106 -262.04823 -180.5094 -262.01088 C -180.84421 -261.97498 -181.42118 -261.70305 -181.4282 -261.52047 C -181.4654 -260.5533 -181.35665 -259.58081 -181.28247 -258.37131 C -181.28167 -198.43241 -181.28144 -138.49329 -181.28144 -78.554378 C -181.28144 -77.849348 -181.29035 -77.144503 -181.46386 -76.356063 C -181.64683 -75.509023 -181.82998 -74.661678 -182.01163 -73.788778 C -182.01163 -73.788778 -182.03735 -73.791032 -182.22505 -73.812032 L -185.99795 -71.759961 C -185.96105 -71.646021 -185.92431 -71.531803 -185.88736 -71.417863 C -185.46937 -71.397963 -185.05118 -71.361619 -184.63317 -71.361019 C -180.79677 -71.356019 -176.96072 -71.357851 -173.12432 -71.355851 C -171.14467 -71.354851 -171.14408 -71.352119 -171.14408 -73.392419 C -171.14403 -114.35811 -171.14409 -155.32361 -171.14408 -196.28931 L -171.14408 -198.06491 L -127.32608 -198.06491 L -129.01383 -72.704606 C -129.06723 -71.676656 -128.73977 -71.319257 -127.67748 -71.335697 C -124.03511 -71.391997 -120.39115 -71.352719 -116.74791 -71.361019 C -116.43434 -71.361809 -116.12087 -71.444486 -115.8074 -71.489176 C -115.7748 -71.626016 -115.74223 -71.762637 -115.70973 -71.899487 C -116.60052 -72.262607 -117.49147 -72.62579 -118.40311 -72.98831 C -118.40311 -72.98831 -118.40234 -73.009207 -118.39587 -73.185197 C -118.74367 -73.471307 -119.0917 -73.757425 -119.45989 -74.039925 C -119.45989 -74.039925 -119.46053 -74.060427 -119.4263 -74.279187 C -121.23859 -87.242505 -114.48549 -262.02912 -118.78758 -262.02897 C -138.65741 -262.02823 -158.52755 -262.02791 -178.39738 -262.02793 C -178.74983 -262.02793 -179.10389 -262.04258 -179.45675 -262.04757 z M -130.91966 -247.05882 C -129.71592 -247.06992 -129.35448 -246.74199 -129.36006 -245.49819 C -129.41006 -234.30322 -129.40458 -223.1082 -129.36368 -211.91316 C -129.35968 -210.76825 -129.65558 -210.40166 -130.83077 -210.40524 C -143.3922 -210.44354 -155.95377 -210.4333 -168.5153 -210.4223 C -169.38421 -210.42151 -170.01434 -210.40394 -170.00978 -211.63463 C -169.96668 -223.27042 -169.98287 -234.90611 -169.97877 -246.54206 C -169.97873 -246.66428 -169.94166 -246.78687 -169.90126 -247.03712 L -148.37389 -247.03712 L -148.37337 -247.0366 C -142.46717 -247.03578 -136.69306 -247.00572 -130.91966 -247.05882 z " />
    <path
       style="stroke-width:0.264583"
       d="m -219.5571,-71.838414 c 0,0 1.18991,0.96272 1.8199,1.36349 0,0 -0.001,0.0335 0.0236,0.2073 0.34509,0.18526 0.69018,0.37054 1.05575,0.55473 0,0 -5.3e-4,0.0205 7e-5,0.20191 0.46853,0.3587 0.93708,0.71738 1.40561,1.07608 0.14497,-0.0345 0.28994,-0.069 0.43491,-0.10356 0.048,-1.72764 0.0959,-3.45528 0.16479,-5.3416 0.007,-0.10642 0.0133,-0.21283 0.2081,-0.39944 0.0365,-0.72843 2.29447,-23.16081 2.57346,-26.135566 0.10787,-1.15011 5.93075,-43.65564 14.52986,-150.88665 0.10412,-1.29846 0.13079,-2.605 0.17767,-4.09603 0.003,-0.18831 0.006,-0.37661 0.18155,-0.63956 0.0352,-0.60544 0.0703,-1.21088 0.0923,-1.97894 0.004,-0.10862 0.008,-0.21724 0.15869,-0.3792 0.0147,-0.26741 0.0294,-0.53481 0.0693,-0.94884 0.0693,-0.11773 0.13849,-0.23545 0.40291,-0.33757 1.59918,-0.64042 3.19836,-1.28085 4.79754,-1.92128 -0.3177,-0.3247 -0.62674,-0.42804 -0.93595,-0.42855 -4.22864,-0.007 -8.45737,-0.01 -12.68584,0.0195 -0.42158,0.003 -1.22369,-0.33634 -1.03098,0.8713 -0.0131,0.18451 -0.0263,0.36903 -0.21354,0.6328 -0.0131,0.69716 -0.0261,1.39433 -0.0724,2.30884 -0.008,0.43804 -0.0168,0.87609 -0.20468,1.406 -0.0499,0.71644 -0.0998,1.43289 -0.1399,2.30364 -0.001,0.25616 -0.002,0.51232 -0.16027,0.88927 -0.22863,2.44587 -0.49482,4.88904 -0.67149,7.33866 -0.10185,1.41242 -0.0591,2.83527 -0.11992,4.40989 -0.008,0.10713 -0.0156,0.21425 -0.21261,0.39959 -0.059,0.20825 -0.15468,0.41358 -0.17151,0.62519 -0.58227,13.56958 -2.0237,26.72106 -3.19168,40.18691 -0.35731,4.23645 -0.70781,8.47386 -1.00548,12.71479 -4.70576,67.04236 -11.06298,75.68872 -11.86651,93.172256 -0.0176,0.10374 -0.0352,0.20746 -0.22051,0.40057 -0.14942,0.72548 -0.22111,1.48092 -0.48386,2.16269 -0.11641,0.30207 -0.6193,0.45517 -1.07002,0.61592 -0.061,-0.0666 -0.12193,-0.13322 -0.17299,-0.38188 -0.42922,-0.29391 -0.85844,-0.58782 -1.40183,-0.95911 -0.0612,-0.0682 -0.12237,-0.13629 -0.18012,-0.38589 -0.5261,-0.37157 -1.0522,-0.74313 -1.59832,-1.11048 0,0 0.004,-0.0201 0.0146,-0.20246 -0.61695,-0.46161 -1.2339,-0.92323 -1.86953,-1.38462 0,0 0.005,-0.018 -1.4e-4,-0.20577 -0.25021,-0.5322 -0.50042,-1.06441 -0.73366,-1.75577 0.006,-0.10648 0.0117,-0.21299 0.18099,-0.36049 0.0335,-0.35356 0.0669,-0.70711 0.11547,-1.24505 0.0256,-0.1831 0.0512,-0.36618 0.22795,-0.659906 0.0286,-0.36612 0.0572,-0.73224 0.0932,-1.24931 0.0121,-0.10005 0.0242,-0.20007 0.19584,-0.42595 0.42055,-2.46622 0.87019,-4.92797 1.25133,-7.40026 0.25034,-1.62385 4.77987,-83.66485 4.94675,-85.75007 0.0182,-0.0858 0.0526,-0.17175 0.0524,-0.25754 -0.0665,-21.97239 -0.49533,-43.69911 -0.82137,-65.6359 -0.01,-0.66568 -0.16185,-1.09872 -0.94951,-1.09339 -2.72595,0.0184 -5.4524,-0.009 -8.17769,0.0378 -0.28443,0.005 -0.80188,0.38469 -0.80231,0.59138 -0.002,0.93557 0.14309,1.87145 0.25541,3.04262 -0.006,1.14377 -0.0121,2.28754 -0.14718,3.60262 0.0451,1.34377 1.88809,91.48121 -2.24371,129.42296 -0.096,0.88104 -0.10448,1.77162 -0.18619,2.81358 -0.0131,0.10532 -0.0263,0.21064 -0.20635,0.35705 -0.0155,0.3571 -0.0309,0.71418 -0.0747,1.22919 -0.004,0.10686 -0.008,0.2137 -0.17616,0.33499 -0.0254,0.27568 -0.0509,0.55136 -0.0933,0.98673 -0.004,0.10699 -0.007,0.21397 -0.19409,0.38738 -0.44576,1.86076 -0.89153,3.72149 -1.3373,5.58225 -0.18137,-0.28081 -0.19385,-0.53936 -0.23486,-0.79328 -0.36194,-2.24177 -0.72896,-4.48272 -1.13458,-6.87823 -0.0216,-0.10408 -0.0433,-0.20816 0.0741,-0.42338 -0.12321,-0.4205 -0.24642,-0.841 -0.38811,-1.44595 -0.0213,-0.1837 -0.0427,-0.36741 0.0954,-0.68247 -2.22135,-14.96873 -12.57405,-99.17363 -17.88655,-137.29991 -0.0457,-0.32788 -0.67239,-0.81501 -1.03579,-0.82126 -3.65487,-0.0629 -7.31124,-0.0468 -10.96705,-0.028 -0.23268,0.001 -0.46429,0.20976 -0.9566,0.44752 0.82372,0.299 1.35129,0.48261 1.87309,0.68138 1.57927,0.60159 2.72986,1.45731 2.74984,3.41828 0.0115,1.12511 22.53431,169.851806 22.65033,170.429336 -0.13044,0.66755 0.10395,1.20708 0.27227,1.85028 0.007,0.17655 0.0149,0.35311 -0.07,0.75558 l 1.99247,15.79255 c 0.18583,0.0177 0.37166,0.0354 0.5575,0.0532 2.37002,-4.7148 4.74005,-9.42961 7.10777,-14.13982 0.78456,0.40845 1.46864,0.76459 2.17667,1.13512 0,0 -0.002,0.0279 0.0219,0.2032 z"
       id="path3" />
    <path
       style="stroke-width:0.264583"
       d="m -14.970549,-226.73112 c -1.277034,1.07361 -2.81945,1.61656 -4.51786,2.59037 0,-2.4359 5e-5,-4.36982 0,-6.30375 0,-10.04373 -0.003,-20.08747 0.004,-30.13121 0,-0.78818 0.0766,-1.49317 -1.09664,-1.46773 -2.55382,0.0554 -5.10993,0.002 -7.66404,0.0497 -0.23934,0.005 -0.47107,0.41415 -0.65433,0.88272 0.002,62.69166 0.004,125.38332 0.005,188.074966 0,0.39641 -0.0229,0.79281 -0.12942,1.35234 0.39061,0.10757 0.77981,0.30164 1.17208,0.30811 1.9385,0.0319 3.8778,0.013 5.81683,0.0141 2.54509,0.002 2.54615,0.002 2.54618,-2.60591 0,-41.865316 0.01,-83.730656 -0.0159,-125.595966 -0.003,-3.70203 -0.0626,-7.38284 1.38489,-10.9073 0,0 0.0193,-2.7e-4 0.21526,-0.003 0.29083,-0.14629 0.58163,-0.29258 0.88419,-0.41335 0,0 0.0167,0.0226 -0.10224,0.18694 0.25104,0.33588 0.50207,0.67176 0.77838,0.99334 0,0 -0.0145,0.0251 -0.0616,0.21014 0.27538,0.37665 0.55078,0.75331 0.84735,1.11682 0,0 -0.008,0.0238 -0.0473,0.21688 0.96632,1.70618 1.90953,3.42606 2.91058,5.1116 0.38468,0.64777 0.90106,1.21732 1.38451,1.80592 0,0 -0.0183,0.026 -0.0709,0.2081 0.26529,0.38488 0.53054,0.76977 0.81909,1.15431 0,0 0.008,0.0219 -0.0185,0.21326 0.7949701,1.25077 1.5899601,2.50154 2.4052801,3.74996 0,0 0.007,0.0193 -0.0319,0.20772 0.35891,0.54723 0.71779,1.09446 1.09559,1.64316 0,0 0.003,0.0189 -0.0292,0.20964 0.79349,1.25451 1.58697,2.50902 2.51807,3.86954 0.148,0.31146 0.29606,0.62293 0.39991,1.12918 0.0365,0.12565 0.0544,0.26066 0.11224,0.37561 2.08169,4.13986 4.16411999,8.27939 6.26086,12.41165 0.10499,0.20687 0.33846,0.34854 0.61976,0.63316 0.01,0.10333 0.0188,0.20665 -0.0185,0.50634 3.40649,7.66183 5.83872,15.62618 7.4400799,23.85236 0.0996,0.51191 0.41529,0.98179 0.63715,1.63179 0.5426,4.66267 1.57287,9.69467 3.09435,15.5459 0,0.10141 0.003,0.20281 -0.0793,0.46786 0.12309,0.25721 0.2462,0.51441 0.39167,0.92857 0.0196,0.10349 0.0391,0.20701 -0.0694,0.44822 0.5934,3.00142 1.17043,6.00626 1.79382,9.00142 0.12657,0.60827 0.42762,1.18021 0.66847,1.92586 0.0172,0.10382 0.0346,0.20764 -0.10285,0.43371 0.27501,1.21701 0.55007,2.43404 0.85326,3.80631 0.0228,0.10259 0.0454,0.2052 -0.0554,0.38876 0.0927,0.14646 0.18542,0.29293 0.28966,0.61505 0.0196,0.17476 0.0391,0.34953 -0.0299,0.6747 0.11065,0.18061 0.22135,0.36122 0.35518,0.69871 0.0119,0.10496 0.0241,0.20992 -0.0921,0.45807 0.82651,4.17402 1.64211,8.35026 2.48791,12.52036 0.1878,0.92599 0.48194,1.830406 0.75615,2.899896 0.0193,0.10333 0.0388,0.20666 -0.0671,0.39352 0.099,0.25828 0.19807,0.51657 0.33155,0.92903 0.0196,0.10353 0.0389,0.20704 -0.0677,0.4497 0.54969,2.88603 1.06185,5.77994 1.6665,8.65441 0.26321,1.25118 0.71649,2.46238 1.09204,3.85178 0.005,0.10668 0.009,0.21338 -0.12615,0.41761 0.12917,0.33598 0.25831,0.67197 0.40296,1.16729 0.0188,0.10452 0.0377,0.20905 -0.0857,0.38474 0.10922,0.26038 0.21844,0.52076 0.34911,0.93892 0.0185,0.10426 0.0372,0.20852 -0.0936,0.43103 0.50921,2.66534 1.02346,5.32975 1.52595,7.99636 0.33422,1.77367 0.52798,1.90462 2.54699,1.51768 0.0602,-0.0161 0.12038,-0.0322 0.22214,-0.0222 0,0 0.0425,-0.0245 0.25347,0.0323 0.29094,0.008 0.58185,0.0152 0.97362,0.19721 1.4851,0.0107 2.97026,0.0213 4.67585,0.0472 0.44071,5e-5 0.88148,1.2e-4 1.40178,0.18896 l 6.01086,0.34388 c 0.034,-0.16881 0.0681,-0.3376 0.10213,-0.50639 -0.97126,-0.40869 -1.94252,-0.81739 -2.93701,-1.21504 0,0 0.0106,-0.0234 0.0103,-0.20578 -0.34425,-0.20269 -0.68847,-0.40539 -1.16427,-0.65332 -0.0513,-0.0748 -0.10253,-0.14957 -0.10099,-0.40381 -0.2789,-0.28744 -0.5578,-0.5749 -0.8573,-0.85038 0,0 0.006,-0.0229 0.0427,-0.21615 -0.74102,-1.85961 -1.48201,-3.71922 -2.23036,-5.73641 -0.007,-0.10492 -0.0148,-0.20982 0.0524,-0.48046 -0.11885,-0.25312 -0.23773,-0.50624 -0.37801,-0.94216 -0.0222,-0.18264 -0.0442,-0.3653 0.0592,-0.69343 -0.9411,-5.32753 -1.866,-10.65799 -2.83499,-15.98045 -0.23188,-1.27357 -0.61044,-2.520436 -0.94916,-3.936596 -0.007,-0.10604 -0.013,-0.21207 0.0966,-0.47008 -0.94244,-5.19058 -1.86999,-10.38393 -2.8376,-15.5698 -0.24554,-1.31585 -0.61847,-2.6079 -0.94851,-4.07098 -0.003,-0.10723 -0.003,-0.21445 0.091,-0.4804 -0.68575,-3.6895 -1.35583,-7.38205 -2.06978,-11.06608 -0.15198,-0.78408 -0.46382,-1.53715 -0.72126,-2.46303 -0.0204,-0.10408 -0.0407,-0.20816 0.0912,-0.43429 -0.26588,-1.21834 -0.53171,-2.43667 -0.8119,-3.81564 -0.003,-0.10746 -0.007,-0.21492 0.0902,-0.42956 -0.11798,-0.24353 -0.23601,-0.48705 -0.3673,-0.89191 -0.003,-0.1079 -0.003,-0.2158 0.0887,-0.48806 -0.56277,-3.05262 -1.10342,-6.10961 -1.705,-9.15458 -0.13787,-0.69775 -0.48551,-1.35406 -0.74253,-2.17762 -0.009,-0.0984 -0.0182,-0.19687 0.059,-0.50428 -0.37227,-1.28173 -0.74454,-2.56346 -1.12205,-3.99391 -0.007,-0.099 -0.0143,-0.1979 0.048,-0.50142 -3.03533,-11.5007 -7.23832,-22.54711 -12.8895199,-33.0253 -0.6322,-1.17222 -1.39793,-2.27241 -2.12186,-3.39513 0,0 0.005,-0.0223 0.0504,-0.21562 -0.78904,-1.35006 -1.57806,-2.70012 -2.39514,-4.0526 0,0 -0.0122,-0.0255 0.0228,-0.21581 -1.24375,-2.03856 -2.48751001,-4.07713 -3.74944001,-6.116 0,0 -0.004,-0.0177 0.0262,-0.1948 -0.18369999,-0.19714 -0.36745999,-0.39428 -0.57348999,-0.58092 0,0 0.009,-0.0229 0.0599,-0.20744 -0.27665,-0.37568 -0.55332,-0.75137 -0.85122,-1.11727 0,0 0.007,-0.0222 0.0559,-0.21135 -0.45027,-0.63988 -0.90051,-1.27976 -1.36927,-1.91255 0,0 1.8e-4,-0.0198 0.0488,-0.20337 -0.27551,-0.37449 -0.5840015,-0.7243 -0.8783515,-1.09749 0,0 0.004,-0.0184 0.0511,-0.20802 -1.07418,-1.60398 -2.14836,-3.20796 -3.24709,-4.79439 0,0 0.014,-0.0267 0.0543,-0.22375 0.24112,-0.50829 0.38018,-1.10845 0.74091,-1.50894 1.5561,-1.72753 37.4256294,-37.22752 39.6478994,-39.42899 1.26878,-1.2569 2.55973,-2.49144 4.08765,-3.97599 -0.72102,-0.14157 -1.03796,-0.25726 -1.3552,-0.25805 -4.71522,-0.0118 -9.43073,-0.0321 -14.14528,0.0242 -0.53819,0.006 -1.18629,0.34266 -1.58781,0.72958 1.701228,-1.66652 -32.430735,32.40634 -34.808638,34.50769 z"
       id="path2" />
  </g>
</svg>
