<?xml version="1.0" encoding="UTF-8" standalone="no"?>
<!-- Created with Inkscape (http://www.inkscape.org/) -->

<svg
   width="210mm"
   height="297mm"
   viewBox="0 0 210 297"
   version="1.1"
   id="svg1"
   inkscape:version="1.4.2 (ebf0e940, 2025-05-08)"
   sodipodi:docname="watkins_bottom.svg"
   xmlns:inkscape="http://www.inkscape.org/namespaces/inkscape"
   xmlns:sodipodi="http://sodipodi.sourceforge.net/DTD/sodipodi-0.dtd"
   xmlns="http://www.w3.org/2000/svg"
   xmlns:svg="http://www.w3.org/2000/svg">
  <sodipodi:namedview
     id="namedview1"
     pagecolor="#ffffff"
     bordercolor="#000000"
     borderopacity="0.25"
     inkscape:showpageshadow="2"
     inkscape:pageopacity="0.0"
     inkscape:pagecheckerboard="0"
     inkscape:deskcolor="#d1d1d1"
     inkscape:document-units="mm"
     inkscape:zoom="0.70733726"
     inkscape:cx="-375.35136"
     inkscape:cy="442.50461"
     inkscape:window-width="1728"
     inkscape:window-height="943"
     inkscape:window-x="0"
     inkscape:window-y="25"
     inkscape:window-maximized="0"
     inkscape:current-layer="layer1" />
  <defs
     id="defs1" />
  <g
     inkscape:label="Layer 1"
     inkscape:groupmode="layer"
     id="layer1">
    <path
       style="stroke-width:0.264583;fill:#000000;fill-opacity:1"
       d="m 243.21614,6.98481 c 3.29446,0.18988 6.60121,-0.004 9.89281,0.0687 2.04504,0.325 3.47223,2.50217 3.08613,4.5122 0.0461,16.0583 0.0205,32.11669 0.0601,48.175 0.7773,1.31577 0.28109,2.89051 0.43408,4.32578 -7.7e-4,19.69877 0.1045,39.39735 0.318,59.09496 0.21861,21.57819 0.33933,43.15793 0.72537,64.734 0.0945,5.01958 0.20968,10.03875 0.31356,15.05815 -5.5306,0 -11.0612,0 -16.5918,0 -0.43869,-6.78767 -0.22242,-13.59304 -0.36186,-20.389 -0.16328,-22.13411 -0.34508,-44.26871 -0.73163,-66.40006 0.0594,-14.38819 -0.18445,-28.77541 -0.29292,-43.16288 -0.18681,-17.60394 -0.31964,-35.20867 -0.54057,-52.81211 -0.045,-3.41612 -0.21614,-6.84248 -0.0905,-10.25352 0.34292,-1.72638 2.06268,-2.9419 3.77923,-2.95118 z"
       id="path12" />
    <path
       id="path11"
       style="stroke-width:0.264583;fill:#000000;fill-opacity:1"
       d="M 11.092863 6.6760783 C 9.9781125 6.6909648 8.7958001 6.9313388 7.9307821 7.6796346 C 6.5785221 8.8434346 6.8398287 10.792232 6.9778687 12.375472 C 7.0218687 70.284252 7.017753 128.19407 7.018693 186.10337 C 6.891343 189.2975 7.3328677 192.57293 6.6554077 195.67436 C 5.6322777 196.23751 4.615025 196.81288 3.554305 197.3032 C 1.495165 198.44091 2.0872156 202.01746 4.3511556 202.52407 C 8.9494056 202.77195 13.571255 202.63669 18.178735 202.63569 C 20.159015 203.01701 22.31869 201.47202 22.42137 199.42039 C 22.44667 158.266 22.446759 117.11043 22.448759 75.95557 L 60.934782 75.95557 L 59.322477 195.8082 C 59.388947 197.56345 58.870227 199.50231 59.905387 201.07972 C 60.746527 202.5476 62.592663 202.73052 64.114433 202.67032 C 67.871173 202.54995 71.637586 202.83414 75.387646 202.51994 C 76.773306 202.54464 77.656013 201.20691 77.876383 199.97694 C 78.144153 199.22893 78.421599 198.212 77.696549 197.61378 C 76.568589 196.96118 75.162807 196.84836 74.105037 196.03765 C 73.944127 193.83611 73.90141 191.58005 73.87301 189.34917 C 73.87736 168.91366 74.379974 148.48246 74.792334 128.05213 C 75.387744 97.754622 76.202641 67.457991 76.238241 37.152771 C 76.160541 28.277591 76.403964 19.367307 75.392814 10.533207 C 75.240494 8.9044372 74.345038 6.9538194 72.520638 6.7525594 C 52.04645 6.6549602 31.568858 6.7299757 11.09338 6.6760783 L 11.092863 6.6760783 z M 58.923018 26.964762 C 58.917318 37.410722 58.91365 47.856931 58.91165 58.302901 C 47.14603 58.298601 35.380199 58.302787 23.614579 58.314787 L 23.614579 26.982332 C 32.503899 26.983332 41.393389 26.983749 50.282719 26.984399 C 53.162929 26.977899 56.042808 26.971762 58.923018 26.964762 z " />
    <path
       style="stroke-width:0.264583;fill:#000000;fill-opacity:1"
       d="m 170.55403,6.67221 c 2.20487,-0.0868 3.97942,2.22852 3.54884,4.34219 6.4e-4,10.55911 0.001,21.11822 0.002,31.67734 1.93877,-1.57974 3.56341,-3.49585 5.40059,-5.18706 10.01918,-9.86379 19.94049,-19.82826 29.94706,-29.70357 1.88852,-1.46965 4.39837,-0.9668 6.60977,-1.0627 3.91217,0.0401 7.84299,-0.16851 11.74184,0.17976 1.80986,0.39729 3.62015,0.79257 5.42964,1.19154 -15.12027,14.77814 -30.1205,29.69443 -45.08008,44.64062 -0.59069,0.61082 -1.19233,1.21171 -1.75195,1.85157 1.24127,1.65539 2.27199,3.45888 3.4375,5.15625 0.7478,1.40999 1.7002,2.70602 2.46128,4.11579 1.45839,2.64174 3.23777,5.09802 4.55332,7.81747 1.23003,1.9402 2.18151,4.0374 3.43488,5.963 2.8287,5.04847 5.21219,10.34064 7.36724,15.70718 2.43227,6.13107 4.48749,12.41883 6.11297,18.80867 0.0545,1.6514 0.94307,3.13858 1.08431,4.77877 0.65339,2.08683 1.06771,4.23077 1.42045,6.38602 0.3614,1.87877 0.68823,3.77119 1.00098,5.65156 0.37712,0.96762 0.11508,2.03733 0.50839,3.00834 0.36905,1.42614 0.4109,2.9176 0.8637,4.32894 0.73629,2.8381 1.11238,5.75382 1.69746,8.62406 0.4565,2.42607 0.67438,4.8937 1.34152,7.2788 1.01169,5.21539 1.92584,10.46565 2.86639,15.69741 -0.0123,1.19756 0.46317,2.29331 0.64446,3.46132 1.13616,5.65039 2.06356,11.34418 3.05379,17.02119 -0.002,0.84068 0.3531,1.59282 0.47901,2.40951 0.6966,1.6662 1.16452,3.45257 2.10549,5.00346 1.27401,1.47777 3.39091,1.62562 4.93408,2.67165 0.63,0.60714 0.19849,1.50899 -0.0196,2.17896 0.0174,1.51319 -1.44818,2.92067 -2.95559,2.62061 -3.0202,-0.0979 -6.02805,-0.4816 -9.04791,-0.53686 -1.4437,0.0403 -2.89413,-0.10353 -4.32488,-0.16562 -1.61379,0.31905 -3.66154,-0.0733 -4.38621,-1.733 -0.93465,-1.86055 -0.89826,-3.97014 -1.41904,-5.93545 -0.36593,-1.8102 -0.66436,-3.65805 -1.05525,-5.44576 -0.12795,-0.53726 -0.0853,-1.07338 -0.30424,-1.60102 -0.0562,-0.84905 -0.24422,-1.66503 -0.49403,-2.48461 -0.99239,-3.6628 -1.54148,-7.43234 -2.25113,-11.15188 -0.0643,-0.48144 -0.34094,-0.95167 -0.24046,-1.45699 -1.05721,-4.51267 -1.93754,-9.12916 -2.80053,-13.70848 -0.13526,-1.02503 -0.4175,-2.01283 -0.64456,-3.01617 -0.25798,-1.17464 -0.29006,-2.39676 -0.65634,-3.5534 -0.31551,-0.95931 -0.23483,-2.00183 -0.66202,-2.9134 -0.81551,-3.58223 -1.4634,-7.2044 -2.17199,-10.80953 -0.28994,-1.39757 -0.50419,-2.81046 -0.91644,-4.18229 -1.00131,-4.06848 -1.65286,-8.21326 -2.36576,-12.33649 -0.99541,-2.71824 -1.2287,-5.59275 -2.08304,-8.32128 -1.48662,-5.81936 -3.4946,-11.52182 -5.96277,-17.02814 -0.70215,-0.91316 -0.99442,-2.06007 -1.59509,-3.03828 -1.91889,-3.7951 -3.89196,-7.56613 -5.6094,-11.45689 -0.83563,-1.45662 -1.9376,-2.75048 -2.63846,-4.28596 -0.87781,-1.62607 -1.84297,-3.16209 -2.83769,-4.73498 -1.20878,-2.24818 -2.79959,-4.26022 -3.96511,-6.53422 -0.266,-0.45458 -0.13963,0.91081 -0.22534,1.21049 -0.13351,3.6871 0.0287,7.37692 -0.0465,11.06523 0.006,40.01137 0.0326,80.02344 -0.016,120.03437 -0.10908,2.06941 -2.16785,3.76946 -4.22533,3.44437 -2.7021,0.0425 -5.4278,0.18454 -8.11256,-0.17679 -1.34609,-0.24263 -2.7334,-1.40752 -2.45197,-2.9001 0.22702,-2.27262 0.0448,-4.56303 0.10405,-6.84404 0.0303,-60.95768 0.0129,-121.91536 0.012,-182.87304 0.36788,-1.89451 2.275,-3.49787 4.24844,-3.09231 2.30198,-0.0147 4.60417,-0.0126 6.90586,-0.0561 z"
       id="path10" />
    <path
       style="stroke-width:0.264583;fill:#000000;fill-opacity:1"
       d="m 86.38411,6.66421 c 20.33268,0.031 40.66558,-0.0151 60.99805,0.10351 1.1981,0.24055 2.11667,1.1075 3.22851,1.55664 -0.0393,5.12301 -0.44589,10.26257 -0.0157,15.37558 0.16865,1.08848 0.34689,2.16543 0.52746,3.25919 -0.94877,-0.27943 -1.93132,-0.18905 -2.84419,0.17283 -1.38831,0.51502 -2.80318,-0.57989 -3.23557,-1.87168 -0.50499,-0.95023 -0.91243,-2.01629 -1.52458,-2.87262 -2.5566,-1.04929 -5.38735,-0.57562 -8.07374,-0.66387 -4.03696,0.021 -8.07399,0.009 -12.11098,0.009 -0.0701,24.24146 -0.0154,48.48307 -0.0372,72.7246 -0.002,34.99471 -0.009,69.99011 -0.0311,104.98438 -0.0893,1.99879 -2.16178,3.54988 -4.10585,3.19679 -2.90677,0.005 -5.84454,0.19706 -8.72887,-0.18266 -1.03503,-0.32162 -1.77334,-1.17656 -2.74536,-1.62546 0.12045,-59.69067 0.17288,-119.38147 0.16797,-179.07226 -5.35424,-1.8e-4 -10.709981,-0.0767 -16.063355,0.0177 -0.969555,-0.004 -2.200205,0.0446 -2.621405,1.10313 -0.45954,1.3873 -0.98707,2.75632 -1.48907,4.13111 -1.51807,-0.005 -3.44627,0.19324 -4.44726,-1.22266 -0.68373,-1.35462 -0.59591,-2.95871 -0.62305,-4.44531 0.11601,-4.00455 -0.18286,-8.02312 0.14648,-12.01758 0.43128,-1.57634 2.02645,-2.6505 3.62891,-2.66015 z"
       id="path9" />
    <path
       style="stroke-width:0.264583;fill:#000000;fill-opacity:1"
       d="m -14.22722,6.65051 c 4.48086,0.18071 8.97515,-0.10865 13.45399,0.12847 1.39956,0.26121 2.48148,1.32457 3.44836,2.29146 0.65282,0.92417 0.15303,2.38749 -0.97804,2.63254 -1.62345,0.74318 -3.31969,1.31431 -4.9536,2.03347 -0.42869,3.58352 -0.52125,7.21997 -0.86584,10.82445 -1.69738,21.15459 -3.51652,42.29959 -5.44142,63.4347 -2.47362,27.00015 -5.20032,53.97732 -8.41565,80.89997 -1.12234,9.77654 -1.98013,19.56797 -2.97436,29.36432 -0.35236,0.33903 0.0402,0.91304 -0.17289,1.33824 -0.054,1.79675 -0.10516,3.59358 -0.1611,5.39027 -1.47846,0.21154 -3.14622,1.06785 -4.54977,0.13951 -2.50808,-1.98722 -4.94757,-3.98431 -7.60291,-5.76835 -3.26999,-2.31863 -6.55382,-4.6159 -9.79458,-6.97467 -2.26278,4.55279 -4.56761,9.08503 -6.8457,13.63086 -1.10144,-0.93141 -2.79528,-0.29306 -3.81836,-1.35938 -1.06698,-1.35074 -0.74809,-3.20469 -1.1013,-4.79216 -0.61179,-4.69211 -1.17585,-9.39234 -1.71003,-14.09213 -0.2314,-1.60022 -0.29457,-3.22037 -0.58019,-4.81488 -7.45255,-55.71464 -14.91238,-111.43306 -22.2125,-167.165 -0.25461,-0.7846 -1.25523,-0.90938 -1.93406,-1.18082 -1.16472,-0.35648 -2.58089,-0.67766 -3.09474,-1.93548 -0.53003,-1.03426 0.0924,-2.23546 1.03421,-2.77309 1.28609,-0.82529 2.79582,-1.40126 4.34911,-1.22098 3.57935,0.11274 7.18467,-0.19583 10.74559,0.24993 1.87586,0.60601 2.80741,2.67988 2.76921,4.53661 5.85019,42.96428 11.08217,86.00944 16.75813,128.9966 0.7705,-8.74628 1.10568,-17.49791 1.44251,-26.27645 0.68403,-19.746 0.73736,-39.50723 0.72494,-59.263 -0.0501,-12.98667 -0.25541,-25.97368 -0.38459,-38.95855 0.28499,-2.14398 -0.18045,-4.30087 -0.10601,-6.43928 0.35311,-1.95484 2.51137,-3.10297 4.38252,-2.8045 2.75476,0.0145 5.52637,-0.15816 8.26971,0.10336 1.83957,0.44488 2.73587,2.51551 2.53915,4.27004 0.29075,21.9587 0.79527,43.91761 0.74684,65.87857 -1.60323,26.49946 -2.96666,53.00456 -4.60754,79.5033 -0.22627,3.16572 -0.29169,6.35327 -0.93418,9.47207 -0.4182,2.39878 -0.87889,4.79376 -1.29991,7.18826 -0.0254,0.83937 0.98675,1.0539 1.45003,1.59576 0.27488,0.1002 0.87634,1.09454 0.91012,0.51973 0.11613,-2.2763 0.40723,-4.75723 0.7458,-7.10157 1.1897,-8.13519 3.15412,-16.135 4.37873,-24.26582 3.83001,-22.58796 5.5286,-45.44148 7.23747,-68.27789 1.21337,-14.96288 2.8768,-29.91275 3.6058,-44.89778 0.13894,-1.13787 0.54269,-2.24476 0.4234,-3.40549 0.12336,-5.27159 0.99159,-10.48878 1.32425,-15.74388 0.1173,-1.43778 0.076,-3.19512 1.32284,-4.18282 0.70095,-0.5586 1.59587,-0.75436 2.47656,-0.72852 z"
       id="path8" />
    <path
       style="stroke-width:0.264583;fill:#000000;fill-opacity:1"
       d="m 282.25716,6.51575 c 2.0535,0.12676 4.21414,-0.27989 6.18018,0.45459 2.0398,1.18757 3.38471,3.20355 5.13848,4.73543 8.10489,8.12809 16.32404,16.14363 24.54267,24.15763 -1e-5,-9.75846 0,-19.51692 0,-29.27539 8.34244,0 16.68489,0 25.02734,0 -2.43861,2.16789 -5.19316,3.92303 -7.76172,5.92383 -0.9233,0.65854 -1.77354,1.54578 -1.89648,2.72852 -0.17447,1.66473 0.003,3.34699 -0.0567,5.01992 0.044,59.81228 0.0353,119.6252 0.0274,179.43711 -0.14954,2.22507 -2.56348,3.79396 -4.68005,3.32164 -2.39391,-0.1189 -4.82997,0.22078 -7.195,-0.20786 -1.86955,-0.65388 -2.69716,-2.86111 -2.38806,-4.70401 0.14128,-19.63359 -0.16285,-39.26649 -0.28222,-58.89939 -0.22685,-26.06162 -0.39295,-52.12417 -0.76327,-78.18421 0.0129,-0.89668 -0.95599,-1.29273 -1.43653,-1.92892 -9.13767,-9.08425 -18.15113,-18.28727 -27.21581,-27.44413 0,57.07357 0,114.14714 0,171.22071 -7.65885,0 -15.31771,0 -22.97656,0 2.23051,-2.1428 4.89251,-3.77274 7.09924,-5.93856 1.42622,-1.47963 1.23558,-3.67156 1.20188,-5.56214 -0.0286,-10.324 0.0216,-20.64822 0.002,-30.97235 10e-4,-51.28828 0.002,-102.57656 0.004,-153.86484 2.47656,-0.007 4.95313,-0.0115 7.42969,-0.0176 z"
       id="path6" />
    <path
       style="stroke-width:0.264583;fill:#000000;fill-opacity:1"
       d="m 401.99349,1.77942 c 0.44776,2.45887 0.79295,5.2388 2.81445,6.9668 2.19084,1.91637 5.10952,2.41553 7.73171,3.47611 0.97237,0.4215 2.05043,0.74336 2.85032,1.45357 1.05843,1.1676 0.32061,3.30894 -1.25552,3.53566 -6.99721,2.22054 -14.13655,4.00596 -21.03963,6.51753 -4.68489,1.84885 -9.14966,3.99905 -13.26921,6.85115 -2.6107,2.02869 -4.51287,4.82015 -5.78059,7.80327 -0.8973,2.32689 -1.88988,4.64783 -2.25661,7.13419 -0.26775,1.66875 -0.32405,3.56795 -0.16211,5.32813 0.19758,2.05285 0.51787,4.25935 0.77601,6.36943 0.81037,4.58387 3.24369,8.78438 5.93734,12.38896 3.18954,4.10218 7.10776,7.55801 10.45797,11.52075 4.24442,4.66681 8.84781,9.0261 12.63954,14.08677 3.28542,4.1681 6.6875,8.24759 9.8092,12.53996 3.36924,5.18885 5.52958,11.12385 6.60455,17.20155 1.07359,6.83173 0.80161,13.77574 0.64358,20.66228 -0.33014,6.60732 -1.66697,13.16957 -4.06715,19.3401 -1.54082,4.60745 -3.35411,9.25202 -6.53281,13.00201 -4.25436,5.69041 -9.47123,10.75564 -15.70115,14.241 -4.6725,2.65193 -9.65195,4.70836 -14.62322,6.72328 -5.68177,2.21936 -11.65031,3.53422 -17.5211,5.13758 -1.83623,0.44114 -3.659,1.01231 -5.52315,1.28887 -1.97778,0.009 -3.84728,-0.47537 -5.80078,-0.36039 -0.9367,0.15127 0.251,-0.6658 0.43228,-1.02399 1.65664,-1.91626 3.27496,-3.89065 5.17214,-5.57024 1.19263,-1.98904 -0.48584,-4.39529 0.60956,-6.41054 0.63272,-1.34934 1.99411,-2.16146 3.39379,-2.51135 6.50502,-2.58413 13.33543,-4.59087 19.21936,-8.49644 3.68375,-2.33623 7.27457,-4.94289 10.03825,-8.35762 6.18445,-7.29591 10.03008,-16.43177 11.5069,-25.84537 0.62094,-4.5669 0.59238,-9.16962 0.55897,-13.78156 0.002,-3.0926 -0.22256,-6.27461 -1.15259,-9.1422 -0.73914,-2.37621 -2.13182,-4.46632 -3.19383,-6.70046 -1.43615,-2.85284 -3.10078,-5.60053 -5.19249,-8.02492 -2.94847,-3.77926 -6.15999,-7.34933 -9.64269,-10.64419 -5.05135,-4.99459 -10.26218,-9.83334 -15.14394,-14.99611 -2.65834,-2.78211 -4.75341,-6.06945 -6.2135,-9.62678 -2.04131,-4.8152 -4.28393,-9.59144 -5.45735,-14.71428 -1.17889,-5.17733 -1.80678,-10.59261 -0.96945,-15.89519 0.50979,-2.7573 1.04185,-5.51358 1.61185,-8.25937 0.56896,-2.58831 1.35105,-5.18634 2.92026,-7.36024 1.83939,-2.70378 4.06963,-5.11081 6.24935,-7.53716 3.6086,-3.53031 8.41515,-5.36799 12.91352,-7.45953 8.40613,-3.71095 16.72572,-7.64212 25.14737,-11.35064 0.50486,-0.38066 0.32473,0.18242 0.4606,0.49962 z"
       id="path3" />
  </g>
</svg>
